<svg width="964" height="560" viewBox="0 0 964 560" fill="none" xmlns="http://www.w3.org/2000/svg">
<g clip-path="url(#clip0_17_9)">
<g opacity="0.099">
<path d="M467.755 639.353L18.744 373.73C4.44901 365.683 -7.80399 352.5 6.12401 343.852L456.734 83.89C463.488 79.696 473.752 76.944 480.637 80.954L951.902 354.781C966.198 363.089 968.763 386.231 954.521 394.618L526.925 638.933C517.951 644.145 507.773 646.925 497.396 646.998C487.019 647.072 476.802 644.437 467.755 639.353V639.353Z" fill="#6862E6"/>
<path d="M467.755 263.353L18.744 -2.27002C4.44901 -10.317 -7.80399 -23.5 6.12401 -32.148L456.734 -292.11C463.488 -296.304 473.752 -299.056 480.637 -295.046L951.902 -21.219C966.198 -12.911 968.763 10.231 954.521 18.618L526.925 262.933C517.951 268.145 507.773 270.925 497.396 270.999C487.019 271.072 476.802 268.437 467.755 263.353V263.353Z" stroke="#1E1F36"/>
<path d="M467.755 338.353L18.744 72.73C4.44901 64.683 -7.80399 51.5 6.12401 42.852L456.734 -217.11C463.488 -221.304 473.752 -224.056 480.637 -220.046L951.902 53.781C966.198 62.089 968.763 85.231 954.521 93.618L526.925 337.933C517.951 343.145 507.773 345.925 497.396 345.999C487.019 346.072 476.802 343.437 467.755 338.353V338.353Z" stroke="#1E1F36"/>
</g>
</g>
<defs>
<clipPath id="clip0_17_9">
<rect width="964" height="560" fill="white"/>
</clipPath>
</defs>
</svg>
