<svg width="369" height="337" viewBox="0 0 369 337" fill="none" xmlns="http://www.w3.org/2000/svg">
<path d="M140.314 333.311L-66.3718 211.052C-72.9523 207.348 -78.5921 201.28 -72.1809 197.299L135.24 77.645C138.349 75.715 143.074 74.4481 146.243 76.2934L363.173 202.329C369.753 206.153 370.934 216.806 364.377 220.666L167.552 333.118C163.421 335.517 158.736 336.797 153.959 336.831C149.182 336.864 144.479 335.651 140.315 333.311H140.314Z" fill="#5B36A0"/>
<path d="M140.314 327.668L-66.3718 205.408C-72.9523 201.705 -78.5921 195.636 -72.1809 191.656L135.24 72.0019C138.349 70.0719 143.074 68.805 146.243 70.6503L363.173 196.686C369.753 200.51 370.934 211.163 364.377 215.022L167.552 327.475C163.421 329.874 158.736 331.154 153.959 331.188C149.182 331.221 144.479 330.008 140.315 327.668H140.314Z" fill="#6862E6"/>
<path style="mix-blend-mode:multiply" opacity="0.25" d="M157.355 166.36L116.571 189.654C116.571 189.654 179.397 228.027 192.243 233.431L215.732 199.654" fill="url(#paint0_linear_5_176)"/>
<path style="mix-blend-mode:multiply" opacity="0.25" d="M143.267 278.112L102.471 254.867L61.6771 278.161C61.6771 278.161 82.9237 291.14 103.231 303.059C116.126 293.927 129.033 284.7 143.267 278.112V278.112Z" fill="url(#paint1_linear_5_176)"/>
<path style="mix-blend-mode:multiply" opacity="0.46" d="M55.3741 134.561L29.4991 149.339C29.4991 149.339 31.6919 162.886 44.5396 168.29L78.4157 146.576" fill="url(#paint2_linear_5_176)"/>
<path d="M68.0403 149.339C76.6597 149.339 83.6472 144.413 83.6472 138.337C83.6472 132.262 76.6597 127.336 68.0403 127.336C59.4208 127.336 52.4334 132.262 52.4334 138.337C52.4334 144.413 59.4208 149.339 68.0403 149.339Z" fill="#68E1FD"/>
<path d="M68.028 136.636C74.484 136.636 79.7177 134.492 79.7177 131.847C79.7177 129.202 74.484 127.058 68.028 127.058C61.572 127.058 56.3384 129.202 56.3384 131.847C56.3384 134.492 61.572 136.636 68.028 136.636Z" fill="#974C26"/>
<path d="M67.6056 123.861C67.6056 121.702 67.5341 119.543 67.3648 117.384C67.3168 116.82 67.2651 116.262 67.2086 115.707L67.0882 114.609C67.0882 114.283 66.9189 113.402 66.9189 113.487C66.8464 113.045 66.7702 112.607 66.6903 112.172C65.4157 104.843 62.5708 97.876 58.3506 91.7489C56.7628 95.5317 55.9708 99.6008 56.0242 103.703C56.0242 104.911 56.1211 106.116 56.217 107.251V107.962C56.3139 108.541 56.4221 109.168 56.5425 109.699C57.0022 111.899 57.6183 114.064 58.3864 116.177C59.0771 118.122 59.9194 120.01 60.9057 121.823C61.9692 123.864 63.1231 125.856 64.3638 127.794C65.2589 129.209 66.1953 130.597 67.1719 131.956C67.4617 129.266 67.5943 126.563 67.6056 123.861V123.861ZM61.472 99.5778C61.5338 99.3 61.5338 99.012 61.472 98.7341C61.7693 99.0389 62.0628 99.353 62.3516 99.6747C62.0619 99.5923 61.7604 99.5596 61.4598 99.5778H61.472Z" fill="#999A1C"/>
<path d="M71.6188 125.526C72.8137 123.724 73.9122 121.859 74.9096 119.941C75.1748 119.442 75.4317 118.944 75.681 118.445L76.1749 117.444L76.6452 116.406L77.1626 115.2C80.0515 108.336 81.4206 100.929 81.1758 93.4861C77.7877 95.8097 74.9159 98.8076 72.7402 102.292C72.1155 103.297 71.5324 104.328 70.9923 105.381L70.7515 105.827L70.6913 106.02C70.4627 106.563 70.2331 107.106 70.0168 107.661C69.217 109.763 68.5684 111.92 68.076 114.114C67.6072 116.126 67.297 118.171 67.1484 120.231C66.9356 122.52 66.831 124.819 66.8352 127.118C66.8352 128.915 66.8352 130.557 66.9434 132.137C68.5464 130.002 70.1607 127.806 71.6188 125.526V125.526ZM79.5737 101.774C79.7619 101.561 79.9021 101.31 79.983 101.037C80.0714 101.456 80.1476 101.859 80.2125 102.244C80.0244 102.056 79.808 101.898 79.5728 101.774H79.5737Z" fill="#999A1C"/>
<path d="M71.5351 130.906C72.7619 130.296 73.9676 129.644 75.1504 128.952L76.0535 128.397L76.6452 128.023L77.2238 127.613L77.8983 127.118C81.6666 124.349 84.7911 120.797 87.0573 116.707C84.4848 116.873 81.974 117.567 79.6819 118.746C79.0187 119.085 78.3799 119.458 77.7412 119.844L77.4646 120.013L77.3677 120.098L76.4759 120.761C75.3648 121.638 74.3179 122.594 73.3432 123.62C72.442 124.555 71.6157 125.559 70.8719 126.623C70.0352 127.807 69.2315 129.014 68.4617 130.242C67.9158 131.144 67.3973 132.061 66.9067 132.993C68.4617 132.342 70.0167 131.666 71.5351 130.905V130.906ZM83.49 120.653C83.6606 120.599 83.8171 120.508 83.9482 120.387C83.8598 120.644 83.7638 120.897 83.6584 121.147C83.6271 120.978 83.5703 120.816 83.49 120.664V120.653ZM67.6056 123.861C67.6056 121.702 67.5341 119.543 67.3648 117.384C67.3168 116.82 67.2651 116.262 67.2086 115.707L67.0882 114.609C67.0882 114.283 66.9189 113.402 66.9189 113.487C66.8465 113.045 66.7703 112.607 66.6903 112.172C65.4157 104.843 62.5708 97.876 58.3506 91.7489C56.7628 95.5317 55.9708 99.6008 56.0242 103.703C56.0242 104.911 56.1211 106.116 56.217 107.251V107.962C56.3139 108.541 56.4221 109.168 56.5425 109.699C57.0022 111.899 57.6183 114.064 58.3864 116.177C59.0771 118.122 59.9194 120.01 60.9057 121.823C61.9692 123.864 63.1231 125.856 64.3638 127.794C65.2589 129.209 66.1954 130.597 67.1719 131.956C67.4617 129.266 67.5943 126.563 67.6056 123.861V123.861ZM61.472 99.5778C61.5338 99.3 61.5338 99.012 61.472 98.7342C61.7693 99.0389 62.0628 99.353 62.3516 99.6747C62.0619 99.5924 61.7604 99.5596 61.4598 99.5778H61.472Z" fill="#999A1C"/>
<path d="M71.6188 125.526C72.8137 123.724 73.9122 121.859 74.9096 119.941C75.1748 119.442 75.4317 118.944 75.681 118.445L76.1749 117.444L76.6452 116.406L77.1626 115.2C80.0515 108.336 81.4206 100.929 81.1758 93.4861C77.7877 95.8097 74.9159 98.8076 72.7402 102.292C72.1155 103.297 71.5324 104.328 70.9923 105.381L70.7515 105.827L70.6913 106.02C70.4627 106.563 70.2331 107.106 70.0168 107.661C69.217 109.763 68.5684 111.92 68.076 114.114C67.6072 116.126 67.297 118.171 67.1484 120.231C66.9356 122.52 66.831 124.819 66.8352 127.118C66.8352 128.915 66.8352 130.557 66.9434 132.137C68.5464 130.002 70.1607 127.806 71.6188 125.526V125.526ZM79.5737 101.774C79.7619 101.561 79.9021 101.31 79.983 101.037C80.0714 101.456 80.1476 101.859 80.2125 102.244C80.0244 102.056 79.808 101.898 79.5728 101.774H79.5737Z" fill="#999A1C"/>
<path d="M71.5351 130.906C72.7619 130.296 73.9677 129.644 75.1504 128.952L76.0535 128.397L76.6452 128.023L77.2238 127.613L77.8983 127.118C81.6666 124.349 84.7911 120.797 87.0573 116.707C84.4848 116.873 81.974 117.567 79.6819 118.746C79.0187 119.085 78.38 119.458 77.7412 119.844L77.4646 120.013L77.3677 120.098L76.4759 120.761C75.3648 121.638 74.3179 122.594 73.3432 123.62C72.442 124.555 71.6157 125.559 70.8719 126.623C70.0353 127.807 69.2316 129.014 68.4617 130.242C67.9159 131.144 67.3973 132.061 66.9067 132.993C68.4617 132.342 70.0168 131.666 71.5351 130.905V130.906ZM83.4901 120.653C83.6606 120.599 83.8171 120.508 83.9482 120.387C83.8598 120.644 83.7638 120.897 83.6585 121.147C83.6271 120.978 83.5703 120.816 83.4901 120.664V120.653Z" fill="#999A1C"/>
<path d="M173.552 157.264L150.98 168.121C150.129 168.531 149.406 169.164 148.888 169.954C148.37 170.743 148.076 171.658 148.039 172.602C148.002 173.545 148.223 174.481 148.677 175.309C149.131 176.136 149.803 176.825 150.618 177.3L204.116 208.544C205.272 209.22 206.645 209.424 207.948 209.111C209.25 208.799 210.382 207.995 211.105 206.868L224.109 186.625" fill="#A1482D"/>
<path d="M296.322 104.898L116.33 1.08223C115.096 0.371599 113.696 -0.0016455 112.272 5.45319e-06C110.847 0.0016564 109.448 0.378145 108.216 1.09163C106.982 1.80589 105.958 2.83182 105.246 4.06656C104.534 5.30131 104.159 6.70147 104.159 8.12669V116.129C104.159 117.314 104.471 118.479 105.063 119.506C105.655 120.533 106.507 121.386 107.534 121.979L299.419 232.852C300.081 233.236 300.832 233.438 301.598 233.439C302.363 233.439 303.114 233.238 303.777 232.855C304.439 232.471 304.989 231.92 305.371 231.257C305.753 230.593 305.953 229.841 305.952 229.076V121.521C305.95 118.149 305.058 114.836 303.368 111.918C301.677 109 299.247 106.578 296.322 104.898V104.898Z" fill="#F47B56"/>
<path d="M116.343 9.24967L290.899 109.772C292.763 110.847 294.311 112.395 295.388 114.258C296.465 116.121 297.032 118.235 297.033 120.387V201.343C297.032 202.117 296.827 202.878 296.44 203.548C296.053 204.219 295.497 204.777 294.827 205.166C294.158 205.554 293.398 205.759 292.624 205.762C291.85 205.764 291.089 205.563 290.417 205.179L112.402 102.98C111.735 102.597 111.182 102.045 110.797 101.38C110.412 100.715 110.209 99.9606 110.209 99.1922V12.8076C110.209 11.3451 110.987 9.99362 112.251 9.26001C112.873 8.89945 113.578 8.70868 114.296 8.70686C115.014 8.70505 115.72 8.89225 116.344 9.24967H116.343Z" fill="white"/>
<path d="M189.79 161.945C191.849 161.549 193.151 159.318 192.697 156.963C192.243 154.608 190.206 153.021 188.147 153.417C186.088 153.813 184.787 156.044 185.24 158.399C185.694 160.754 187.731 162.341 189.79 161.945Z" fill="#AB643C"/>
<path opacity="0.32" d="M163.26 119.084L244.38 167.868L284.451 144.55L212.852 102.835" fill="url(#paint3_linear_5_176)"/>
<path d="M263.505 109.373L175.806 55.8485C175.336 55.5769 174.803 55.4361 174.26 55.4407C173.718 55.4454 173.187 55.5953 172.722 55.8748C172.257 56.1545 171.875 56.5535 171.616 57.0304C171.357 57.5074 171.231 58.0449 171.25 58.5873V89.0844C171.246 89.6359 171.385 90.1789 171.653 90.6608C171.921 91.1426 172.31 91.547 172.78 91.8345L260.469 144.225C261.407 144.758 262.557 144.752 263.489 144.206C263.946 143.938 264.326 143.555 264.589 143.095C264.852 142.634 264.99 142.113 264.988 141.582L265.446 113.15C265.48 112.406 265.319 111.667 264.978 111.004C264.638 110.342 264.13 109.78 263.505 109.374V109.373Z" fill="#E2AC00"/>
<path d="M242.524 125.068C245.669 129.47 251.201 130.701 254.865 127.83C258.528 124.959 258.95 119.061 255.806 114.669C252.659 110.278 247.127 109.036 243.463 111.907C239.8 114.777 239.378 120.664 242.524 125.068V125.068Z" fill="white"/>
<path d="M233.919 103.933L198.149 82.3767C197.842 82.2328 197.492 82.2087 197.168 82.3093C196.844 82.4098 196.569 82.6278 196.398 82.9203C196.226 83.2131 196.169 83.5594 196.239 83.8916C196.309 84.2239 196.501 84.5181 196.776 84.7167L232.545 106.273C232.852 106.417 233.202 106.441 233.526 106.341C233.85 106.24 234.125 106.022 234.296 105.73C234.468 105.437 234.525 105.091 234.455 104.759C234.386 104.426 234.194 104.132 233.919 103.933V103.933ZM232.449 112.691L183.145 82.9796C182.843 82.8759 182.514 82.8814 182.215 82.9951C181.917 83.1089 181.668 83.3237 181.512 83.602C181.356 83.8804 181.302 84.2048 181.36 84.5187C181.419 84.8325 181.585 85.1159 181.831 85.3196L231.074 115.043C231.382 115.187 231.732 115.211 232.056 115.11C232.38 115.01 232.654 114.792 232.826 114.499C232.998 114.206 233.055 113.86 232.985 113.528C232.915 113.196 232.724 112.901 232.449 112.703V112.69V112.691Z" fill="#F2F2F2"/>
<path d="M246.007 115.284L158.355 61.7719C157.886 61.5003 157.352 61.3595 156.81 61.3641C156.267 61.3687 155.736 61.5186 155.271 61.7982C154.806 62.0778 154.424 62.4768 154.165 62.9538C153.907 63.4308 153.78 63.9683 153.799 64.5106V94.9937C153.792 95.5463 153.928 96.0913 154.194 96.5756C154.461 97.0598 154.848 97.4669 155.318 97.757L243.006 150.147C243.954 150.692 245.122 150.683 246.061 150.123C246.523 149.848 246.903 149.454 247.162 148.984C247.422 148.513 247.551 147.982 247.537 147.444L247.995 119.013C248.016 118.272 247.843 117.539 247.494 116.885C247.146 116.232 246.633 115.68 246.007 115.284V115.284Z" fill="#F47B56"/>
<path d="M225.024 130.979C228.17 135.381 233.702 136.613 237.366 133.741C241.029 130.87 241.451 124.971 238.306 120.58C235.16 116.188 229.628 114.947 225.965 117.817C222.301 120.689 221.88 126.575 225.024 130.979Z" fill="white"/>
<path d="M216.419 109.844L180.626 88.2869C180.319 88.143 179.969 88.1189 179.645 88.2195C179.321 88.32 179.046 88.5379 178.875 88.8305C178.703 89.1233 178.646 89.4696 178.716 89.8018C178.786 90.1341 178.977 90.4282 179.253 90.6269L215.022 112.184C215.329 112.327 215.679 112.351 216.003 112.251C216.327 112.15 216.602 111.932 216.773 111.64C216.945 111.347 217.002 111.001 216.932 110.669C216.862 110.337 216.671 110.042 216.396 109.844H216.419V109.844ZM214.938 118.662L165.646 88.902C165.339 88.7581 164.989 88.7342 164.665 88.835C164.34 88.9357 164.066 89.1538 163.894 89.4465C163.722 89.7393 163.666 90.0857 163.736 90.4179C163.806 90.7501 163.997 91.0443 164.272 91.2429L213.576 120.954C213.883 121.098 214.233 121.122 214.557 121.021C214.881 120.921 215.156 120.703 215.327 120.41C215.499 120.117 215.556 119.771 215.486 119.439C215.416 119.107 215.225 118.812 214.949 118.614L214.938 118.662V118.662Z" fill="#F2F2F2"/>
<path d="M224.013 118.88L136.336 65.3674C135.867 65.0957 135.333 64.9547 134.791 64.9592C134.248 64.9637 133.717 65.1134 133.252 65.3928C132.787 65.6726 132.406 66.0717 132.147 66.5486C131.888 67.0256 131.762 67.563 131.781 68.1053V98.5893C131.777 99.1407 131.916 99.6837 132.185 100.166C132.453 100.647 132.841 101.052 133.312 101.339L220.999 153.73C221.947 154.275 223.116 154.266 224.056 153.705C224.517 153.43 224.897 153.037 225.156 152.566C225.415 152.096 225.544 151.565 225.531 151.028L225.989 122.595C226.008 121.858 225.836 121.129 225.49 120.478C225.144 119.827 224.635 119.276 224.013 118.88V118.88Z" fill="#68E1FD"/>
<path d="M224.013 118.88L136.336 65.3674C135.867 65.0957 135.333 64.9547 134.791 64.9592C134.248 64.9637 133.717 65.1134 133.252 65.3928C132.787 65.6726 132.406 66.0717 132.147 66.5486C131.888 67.0256 131.762 67.563 131.781 68.1053V98.5893C131.777 99.1407 131.916 99.6837 132.185 100.166C132.453 100.647 132.841 101.052 133.312 101.339L220.999 153.73C221.947 154.275 223.116 154.266 224.056 153.705C224.517 153.43 224.897 153.037 225.156 152.566C225.415 152.096 225.544 151.565 225.531 151.028L225.989 122.595C226.008 121.858 225.836 121.129 225.49 120.478C225.144 119.827 224.635 119.276 224.013 118.88V118.88Z" fill="#68E1FD"/>
<path d="M203.019 134.573C206.164 138.976 211.696 140.207 215.359 137.336C219.023 134.464 219.445 128.565 216.3 124.175C213.154 119.784 207.622 118.541 203.958 121.413C200.295 124.283 199.909 130.17 203.018 134.573H203.019Z" fill="white"/>
<path d="M194.414 113.439L158.633 91.8825C158.325 91.7386 157.976 91.7145 157.652 91.8151C157.328 91.9156 157.053 92.1336 156.881 92.4261C156.709 92.7188 156.652 93.065 156.722 93.3973C156.792 93.7295 156.983 94.0237 157.258 94.2225L193.028 115.779C193.335 115.923 193.685 115.947 194.009 115.847C194.333 115.746 194.608 115.528 194.78 115.236C194.952 114.943 195.008 114.596 194.938 114.264C194.868 113.932 194.677 113.638 194.402 113.439H194.414V113.439ZM192.931 122.209L143.628 92.4966C143.321 92.3528 142.971 92.3289 142.647 92.4296C142.322 92.5304 142.048 92.7485 141.876 93.0412C141.704 93.334 141.648 93.6803 141.718 94.0125C141.788 94.3448 141.979 94.639 142.254 94.8376L191.558 124.549C191.865 124.692 192.215 124.716 192.539 124.616C192.863 124.515 193.138 124.297 193.309 124.005C193.481 123.712 193.538 123.366 193.468 123.034C193.398 122.701 193.207 122.407 192.931 122.209V122.209Z" fill="#F2F2F2"/>
<path d="M108.944 115.887C103.277 120.77 98.9921 127.056 96.5184 134.114C92.1552 146.178 103.062 165.889 103.062 165.889L120.031 152.44" fill="#FF8F6F"/>
<path d="M107.111 275.374L102.508 272.829L103.712 266.243C103.712 266.243 110.57 266.894 111.172 269.331" fill="#003B94"/>
<path d="M108.799 275.278C109.835 274.639 110.92 274.072 111.993 273.505C114.655 272.045 118.501 270.537 120.139 267.799C120.475 267.245 120.635 266.602 120.596 265.955C120.557 265.309 120.323 264.689 119.923 264.179C117.512 261.26 112.233 266.061 109.534 262.829C109.004 262.189 108.751 252.044 108.751 252.044L98.4826 254.818C98.4826 254.818 96.747 275.205 96.9398 276.46C97.1327 277.714 100.664 278.873 100.664 278.873C101.716 278.649 102.72 278.241 103.628 277.666C104.701 276.882 103.724 267.316 105.099 268.655C106.472 269.995 107.074 275.23 107.074 275.23C107.645 275.316 108.224 275.333 108.799 275.278V275.278Z" fill="#F47B56"/>
<path d="M126.72 285.229L122.116 282.721L123.32 276.134C123.32 276.134 130.178 276.786 130.78 279.222" fill="#003B94"/>
<path d="M128.455 285.133C129.491 284.494 130.576 283.927 131.648 283.36C134.312 281.901 138.156 280.393 139.795 277.654C140.131 277.1 140.29 276.457 140.252 275.811C140.213 275.164 139.978 274.545 139.579 274.035C137.168 271.116 131.889 275.917 129.19 272.685C128.66 272.045 128.407 261.9 128.407 261.9L118.138 264.674C118.138 264.674 116.392 285.133 116.584 286.34C116.777 287.546 120.308 288.752 120.308 288.752C121.36 288.529 122.364 288.12 123.273 287.546C124.345 286.762 123.369 277.196 124.743 278.535C126.117 279.874 126.719 285.11 126.719 285.11C127.294 285.189 127.877 285.197 128.455 285.133V285.133Z" fill="#F47B56"/>
<path d="M93.2643 218.955L90.2389 259.451C90.2389 259.451 95.0602 266.11 111.221 262.407L111.377 235.107L93.2643 218.955ZM111.932 226.977C111.582 230.463 111.932 268.921 111.932 268.921C111.932 268.921 116.403 277.292 135.867 268.921L135.589 236.241" fill="#3E2928"/>
<path d="M91.7573 232.333C93.0837 233.25 93.5409 228.533 94.9276 229.342C99.9691 232.273 105.32 234.636 110.883 236.386H111.004C111.136 236.322 111.281 236.285 111.428 236.277C111.575 236.269 111.722 236.292 111.861 236.342C111.999 236.393 112.126 236.471 112.233 236.572C112.341 236.673 112.427 236.794 112.486 236.929C115.923 237.955 119.421 238.761 122.96 239.341C127.504 240.066 131.263 236.7 135.927 236.471C135.927 218.594 136.012 167.711 128.407 156.854L105.906 149.278C105.798 151.136 94.9878 163.682 95.2521 178.978C95.5531 196.216 93.3123 212.477 92.9266 217.869C92.8664 218.786 91.8062 231.356 91.7573 232.333V232.333Z" fill="#3E2928"/>
<path d="M130.479 136.298L128.407 156.805C128.407 156.805 111.619 157.482 104.388 152.487V135.092" fill="#FF8F6F"/>
<path d="M151.823 122.8L150.111 125.14C151.024 123.236 151.829 121.284 152.522 119.29C153.004 117.926 150.823 117.384 150.341 118.746L150.087 119.446C150.297 118.722 150.493 117.995 150.678 117.262C150.716 117.118 150.725 116.968 150.705 116.82C150.685 116.673 150.635 116.53 150.559 116.402C150.483 116.274 150.383 116.162 150.263 116.073C150.143 115.984 150.007 115.919 149.863 115.883C149.718 115.847 149.568 115.84 149.42 115.863C149.273 115.886 149.131 115.937 149.004 116.015C148.877 116.093 148.767 116.196 148.679 116.316C148.592 116.437 148.53 116.574 148.496 116.72C148.024 118.613 147.457 120.481 146.797 122.318C147.166 120.687 147.431 119.035 147.593 117.37C147.738 115.936 145.484 115.996 145.351 117.37C145.164 119.265 144.826 121.141 144.339 122.981C144.339 122.337 144.279 121.694 144.158 121.051C144.142 120.89 144.092 120.735 144.011 120.596C143.929 120.456 143.819 120.336 143.688 120.242C143.627 119.99 143.555 119.74 143.472 119.494C143.387 119.241 143.215 119.027 142.987 118.888C142.759 118.749 142.49 118.695 142.226 118.736C141.963 118.776 141.722 118.908 141.546 119.109C141.37 119.31 141.271 119.566 141.266 119.833L141.121 128.277C140.713 129.151 140.181 129.965 139.542 130.689C140.627 131.44 141.673 132.245 142.676 133.102C143.571 133.859 144.424 134.664 145.231 135.514C145.951 134.617 146.646 133.7 147.316 132.764C147.398 132.693 147.472 132.612 147.532 132.522C149.539 129.549 151.613 126.621 153.751 123.741C154.643 122.751 152.679 121.654 151.823 122.8V122.8Z" fill="#FFB5A9"/>
<path d="M119.826 117.601C119.826 117.601 127.757 119.736 130.974 124.838C132.989 128.371 134.765 132.034 136.289 135.805L142.145 126.696C142.145 126.696 149.256 128.88 152.076 132.378C152.076 132.378 143.64 150.834 136.288 152.415C128.937 153.995 121.127 141.582 121.127 141.582C121.127 141.582 119.513 146.769 119.826 141.232" fill="#FF8F6F"/>
<path d="M124.864 137.324C122.558 135.446 120.819 132.966 119.838 130.159C118.885 126.914 120.079 124.066 121.187 121.051C122.388 118.061 123.088 114.894 123.261 111.678C123.357 108.517 122.996 105.357 122.778 102.207C122.747 102.073 122.747 101.932 122.778 101.797C121.718 98.2394 119.549 95.2232 115.271 94.8611C104.195 93.9206 103.568 106.201 103.653 111.195C103.738 116.189 104.267 119.567 100.592 121.654C96.9154 123.741 94.2644 129.217 97.7714 133.645C101.279 138.071 98.1327 136.455 95.7949 140.388C93.4572 144.32 94.0593 149.23 98.8561 151.003C103.653 152.776 125.948 149.447 127.996 147.384C128.724 146.553 129.1 145.472 129.045 144.369C128.546 141.594 127.061 139.092 124.864 137.324V137.324Z" fill="#007F68"/>
<path d="M135.759 36.0412C137.636 38.7462 138.721 41.9214 138.891 45.2094C139.101 46.7147 138.736 48.2439 137.868 49.4916C137.498 49.8985 137.004 50.1706 136.462 50.2646C135.92 50.3587 135.363 50.2693 134.878 50.0107C134.269 49.7677 133.719 49.3977 133.264 48.9254C132.855 48.5412 132.505 48.098 132.227 47.6105L131.938 47.0434C131.859 47.1917 131.762 47.3295 131.648 47.4535C131.361 47.6772 131.021 47.8227 130.661 47.8758C130.058 47.9874 129.435 47.9116 128.877 47.6585C127.545 47.0812 126.436 46.0863 125.719 44.8238C124.854 43.4513 124.372 41.8731 124.321 40.2519C124.233 39.6034 124.288 38.9435 124.481 38.3184C124.675 37.6932 125.003 37.1179 125.442 36.6328C125.824 36.2642 126.31 36.0223 126.834 35.9402C127.358 35.858 127.895 35.9396 128.371 36.1738C128.853 36.3667 129.298 36.6441 129.684 36.9949C130.013 37.2743 130.304 37.594 130.552 37.9477L130.768 38.3333V37.2601L133.179 38.2007L133.42 44.9808C133.437 45.4662 133.587 45.9373 133.854 46.3437C134.08 46.7358 134.427 47.0443 134.842 47.224C136.007 47.6829 136.545 46.6775 136.458 44.2087C136.336 41.7636 135.53 39.4019 134.131 37.3928C132.875 35.3499 131.007 33.7546 128.792 32.8331C127.989 32.4243 127.081 32.2666 126.187 32.3807C125.292 32.4948 124.453 32.8753 123.778 33.4727C123.058 34.1971 122.51 35.0739 122.174 36.0384C121.839 37.0029 121.724 38.0305 121.838 39.0452C121.976 41.6308 122.808 44.1314 124.249 46.2835C125.394 48.4077 127.201 50.1013 129.394 51.1083C130.158 51.4281 130.979 51.588 131.806 51.5786C132.344 51.6152 132.882 51.5159 133.372 51.2898L133.854 51.0237L135.313 53.738L135.071 53.9073C134.842 54.0359 134.605 54.1487 134.361 54.2449C133.975 54.4114 133.57 54.5252 133.155 54.5835C132.623 54.6549 132.084 54.6549 131.552 54.5835C130.854 54.5 130.169 54.3255 129.516 54.0643C127.659 53.265 126.01 52.0519 124.694 50.5177C123.135 48.7914 121.872 46.8183 120.959 44.6789C120.044 42.635 119.52 40.4376 119.416 38.2007C119.286 36.3196 119.67 34.4395 120.525 32.7607C121.235 31.3521 122.461 30.2717 123.948 29.7445C125.505 29.2312 127.198 29.3174 128.695 29.9862C131.621 31.2239 134.089 33.3398 135.759 36.0412V36.0412ZM130.443 44.6187C130.838 44.1127 131.017 43.4704 130.937 42.8327C130.918 42.0468 130.698 41.2789 130.298 40.6018C129.972 40.0108 129.459 39.5442 128.84 39.2747C128.603 39.1522 128.334 39.105 128.069 39.1394C127.804 39.1739 127.556 39.2883 127.358 39.4675C127.15 39.7045 126.995 39.9832 126.904 40.2849C126.812 40.5866 126.786 40.9044 126.828 41.2169C126.855 42.0126 127.091 42.7866 127.515 43.46C127.863 44.0732 128.399 44.5557 129.045 44.836C129.272 44.9519 129.529 44.9933 129.78 44.9543C130.031 44.9152 130.263 44.7978 130.443 44.6187ZM278.052 166.661C279.932 169.365 281.018 172.541 281.185 175.829C281.395 177.335 281.029 178.864 280.161 180.111C279.791 180.516 279.296 180.787 278.756 180.881C278.215 180.975 277.658 180.887 277.173 180.631C276.565 180.384 276.015 180.015 275.557 179.545C275.15 179.159 274.801 178.716 274.521 178.229L274.232 177.663C274.15 177.81 274.053 177.947 273.942 178.073C273.656 178.299 273.315 178.445 272.954 178.496C272.357 178.616 271.737 178.544 271.183 178.291C269.849 177.71 268.74 176.711 268.025 175.444C267.152 174.07 266.665 172.486 266.615 170.86C266.523 170.211 266.576 169.55 266.77 168.924C266.964 168.299 267.294 167.724 267.736 167.24C268.116 166.873 268.6 166.632 269.122 166.55C269.644 166.468 270.178 166.549 270.652 166.782C271.136 166.974 271.581 167.252 271.966 167.603C272.295 167.887 272.586 168.211 272.834 168.567L273.062 168.953V167.88L275.473 168.808L275.714 175.588C275.735 176.073 275.885 176.543 276.147 176.951C276.375 177.343 276.721 177.652 277.136 177.832C278.341 178.291 278.836 177.289 278.763 174.816C278.641 172.368 277.835 170.002 276.437 167.988C275.181 165.953 273.318 164.363 271.11 163.441C270.308 163.032 269.401 162.873 268.507 162.985C267.613 163.097 266.773 163.474 266.096 164.068C265.38 164.801 264.838 165.686 264.51 166.657C264.183 167.628 264.079 168.66 264.205 169.677C264.34 172.263 265.173 174.764 266.615 176.915C267.805 178.988 269.631 180.625 271.822 181.583C272.585 181.901 273.404 182.065 274.232 182.066C274.77 182.097 275.307 181.998 275.798 181.776L276.281 181.511L277.739 184.225L277.498 184.395C277.269 184.523 277.031 184.636 276.787 184.732C276.399 184.892 275.995 185.005 275.582 185.07C275.046 185.141 274.503 185.141 273.966 185.07C273.271 184.982 272.591 184.804 271.942 184.539C270.087 183.743 268.438 182.534 267.121 181.004C265.561 179.274 264.299 177.297 263.386 175.154C262.47 173.11 261.947 170.913 261.843 168.676C261.712 166.799 262.095 164.922 262.951 163.247C263.663 161.837 264.888 160.754 266.374 160.219C267.936 159.711 269.631 159.797 271.134 160.461C274.025 161.764 276.442 163.93 278.052 166.661V166.661ZM272.737 175.239C272.935 174.989 273.082 174.703 273.169 174.396C273.255 174.09 273.281 173.769 273.243 173.453C273.222 172.665 272.998 171.897 272.593 171.222C272.272 170.63 271.763 170.163 271.146 169.895C270.91 169.771 270.642 169.721 270.377 169.754C270.112 169.786 269.864 169.898 269.664 170.075C269.453 170.31 269.295 170.588 269.201 170.89C269.107 171.192 269.08 171.511 269.122 171.825C269.15 172.616 269.386 173.386 269.808 174.056C270.156 174.672 270.693 175.159 271.339 175.444C271.564 175.561 271.82 175.604 272.071 175.568C272.322 175.531 272.555 175.416 272.737 175.239" fill="#F47B56"/>
<path style="mix-blend-mode:multiply" opacity="0.25" d="M37.8867 218.099L-2.90853 194.864L-43.6906 218.146C-43.6906 218.146 -20.998 232.332 -0.690257 244.251C12.2045 235.131 23.6655 224.697 37.8867 218.098V218.099Z" fill="url(#paint4_linear_5_176)"/>
<defs>
<linearGradient id="paint0_linear_5_176" x1="177.239" y1="191.056" x2="164.127" y2="208.85" gradientUnits="userSpaceOnUse">
<stop stop-color="#78B46A"/>
<stop offset="0.03" stop-color="#7F3500"/>
<stop offset="1" stop-color="white"/>
</linearGradient>
<linearGradient id="paint1_linear_5_176" x1="128.732" y1="268.611" x2="101.232" y2="298.81" gradientUnits="userSpaceOnUse">
<stop stop-color="#78B46A"/>
<stop offset="0.03" stop-color="#7F3500"/>
<stop offset="1" stop-color="white"/>
</linearGradient>
<linearGradient id="paint2_linear_5_176" x1="68.9552" y1="141.936" x2="48.3355" y2="164.581" gradientUnits="userSpaceOnUse">
<stop stop-color="#78B46A"/>
<stop offset="0.03" stop-color="#7F3500"/>
<stop offset="1" stop-color="white"/>
</linearGradient>
<linearGradient id="paint3_linear_5_176" x1="261.444" y1="142.238" x2="249.087" y2="133.212" gradientUnits="userSpaceOnUse">
<stop stop-color="white" stop-opacity="0"/>
<stop offset="0.99" stop-color="#DC841E"/>
</linearGradient>
<linearGradient id="paint4_linear_5_176" x1="23.3521" y1="208.464" x2="-4.5511" y2="239.106" gradientUnits="userSpaceOnUse">
<stop stop-color="#78B46A"/>
<stop offset="0.03" stop-color="#7F3500"/>
<stop offset="1" stop-color="white"/>
</linearGradient>
</defs>
</svg>
