<svg width="186" height="179" viewBox="0 0 186 179" fill="none" xmlns="http://www.w3.org/2000/svg">
<g filter="url(#filter0_d_0_1)">
<path d="M50 28.8536V80.581L90.3918 103.66L135.999 76.7497V25.0223" fill="black"/>
</g>
<path d="M50 28.8536V80.581L90.3918 103.66L135.999 76.7497V25.0223" fill="#FF9271"/>
<path d="M90.3927 51.9336V103.661L136 76.7497V25.0223L90.3927 51.9336Z" fill="#DF5C34"/>
<path d="M50 28.8526L96.8652 2.2025L136 25.0242L90.3927 51.9346L50 28.8526Z" fill="#F47B56"/>
<path d="M91.4649 14.0747C96.2166 13.7547 100.961 14.7972 105.138 17.0793C107.531 18.4831 108.838 19.9485 109.023 21.4762C109.207 23.0029 108.418 24.3328 106.557 25.4544C105.674 25.9987 104.701 26.3823 103.684 26.5875C102.848 26.7843 101.99 26.8707 101.132 26.8458L100.194 26.7718C100.282 26.9802 100.34 27.2001 100.367 27.4248C100.338 27.9564 100.168 28.4707 99.8737 28.915C99.3856 29.7411 98.6887 30.4249 97.8526 30.8979C95.904 32.0531 93.6705 32.6417 91.4042 32.5975C89.0593 32.6604 86.7423 32.0766 84.7085 30.9104C82.7846 29.7773 81.7991 28.4465 81.7249 26.9197C81.7322 26.111 81.9672 25.3207 82.4032 24.639C82.8393 23.9572 83.4587 23.4116 84.1907 23.0644C84.8931 22.6274 85.658 22.2994 86.4592 22.0917C87.0981 21.9076 87.7557 21.7962 88.4197 21.7594H89.0982L87.8644 21.0201L91.3292 18.8653L99.3559 23.582C99.9697 23.9117 100.656 24.0843 101.353 24.0843C102.05 24.0843 102.736 23.9117 103.35 23.582C105.053 22.5228 104.444 21.1315 101.526 19.4069C98.4249 17.7032 94.8994 16.9211 91.3667 17.1532C87.6223 17.1991 83.9594 18.2498 80.7625 20.1952C77.853 22.0101 76.4103 24.1735 76.4354 26.6864C76.4354 29.1484 77.9762 31.3415 80.9723 33.1026C84.2424 34.9273 87.9563 35.8099 91.6997 35.652C95.4265 35.7127 99.0971 34.7404 102.303 32.8433C103.413 32.1873 104.408 31.3554 105.25 30.3804C105.813 29.7837 106.234 29.0683 106.482 28.2871L106.655 27.5112L111.23 27.7695C111.237 27.9087 111.237 28.048 111.23 28.1882C111.146 28.5652 111.035 28.9355 110.897 29.2963C110.698 29.8752 110.433 30.4294 110.107 30.9479C109.638 31.6457 109.092 32.2897 108.481 32.8683C107.674 33.6446 106.785 34.3304 105.829 34.9136C103.077 36.5622 100.028 37.6582 96.8536 38.1399C93.3948 38.7426 89.8631 38.8048 86.3851 38.3243C83.2236 37.9525 80.168 36.9559 77.3968 35.3927C75.1593 34.2108 73.3676 32.3349 72.2921 30.0481C71.8525 29.0504 71.6255 27.9725 71.6255 26.8827C71.6255 25.7929 71.8525 24.715 72.2921 23.7173C73.3575 21.3887 75.1307 19.4539 77.3603 18.1874C81.6085 15.5824 86.4792 14.1618 91.4649 14.0738V14.0747ZM95.9527 26.8093C95.7891 25.9537 95.2116 25.2345 94.4119 24.8879C93.4406 24.3168 92.3342 24.0148 91.2069 24.0131C90.1589 23.9734 89.122 24.2387 88.2224 24.7765C87.8599 24.953 87.5532 25.2256 87.3357 25.5646C87.1182 25.9035 86.9985 26.2956 86.9895 26.6979C87.1021 27.5525 87.6536 28.2861 88.4447 28.6318C89.4381 29.1981 90.5674 29.4836 91.7112 29.4576C92.811 29.485 93.8963 29.2031 94.843 28.6443C95.1941 28.4839 95.4908 28.2249 95.6967 27.899C95.9027 27.5732 96.009 27.1945 96.0028 26.8093" fill="#3E2928"/>
<defs>
<filter id="filter0_d_0_1" x="0" y="0.0223083" width="185.999" height="178.638" filterUnits="userSpaceOnUse" color-interpolation-filters="sRGB">
<feFlood flood-opacity="0" result="BackgroundImageFix"/>
<feColorMatrix in="SourceAlpha" type="matrix" values="0 0 0 0 0 0 0 0 0 0 0 0 0 0 0 0 0 0 127 0" result="hardAlpha"/>
<feOffset dy="25"/>
<feGaussianBlur stdDeviation="25"/>
<feColorMatrix type="matrix" values="0 0 0 0 0.209139 0 0 0 0 0.0691446 0 0 0 0 0.478091 0 0 0 0.497159 0"/>
<feBlend mode="normal" in2="BackgroundImageFix" result="effect1_dropShadow_0_1"/>
<feBlend mode="normal" in="SourceGraphic" in2="effect1_dropShadow_0_1" result="shape"/>
</filter>
</defs>
</svg>
